<?xml version="1.0" encoding="UTF-8"?>
<svg xmlns="http://www.w3.org/2000/svg" width="48" height="48" viewBox="0 0 48 48">
  <g id="Group_1111" data-name="Group 1111" transform="translate(-931 -2534)">
    <g id="ETH" transform="translate(931 2534)">
      <circle id="Ellipse_58" data-name="Ellipse 58" cx="24" cy="24" r="24" transform="translate(0 0)" fill="#627eea"></circle>
      <g id="Group_4664" data-name="Group 4664" transform="translate(14.606 9.231)">
        <path id="Path_17" data-name="Path 17" d="M-41.326,234.96V223.908l-9.394,14.92Z" transform="translate(50.72 -223.908)" fill="#fff" opacity="0.6"></path>
        <path id="Path_18" data-name="Path 18" d="M-43.556,234.96V223.908l9.394,14.92Z" transform="translate(52.95 -223.908)" fill="#fff" opacity="0.8"></path>
        <path id="Path_19" data-name="Path 19" d="M-41.326,232.336v9.394L-50.72,236.2Z" transform="translate(50.72 -221.284)" fill="#fff" opacity="0.8"></path>
        <path id="Path_20" data-name="Path 20" d="M-43.556,232.336v9.394l9.394-5.526Z" transform="translate(52.95 -221.284)" fill="#fff"></path>
        <path id="Path_21" data-name="Path 21" d="M-50.72,236.971l9.394,5.524v7.184Z" transform="translate(50.72 -219.841)" fill="#fff" opacity="0.6"></path>
        <path id="Path_22" data-name="Path 22" d="M-34.162,236.971l-9.394,5.524v7.184Z" transform="translate(52.95 -219.841)" fill="#fff" opacity="0.8"></path>
      </g>
    </g>
    <g id="Group_1108" data-name="Group 1108" transform="translate(9 -2)">
      <g id="Path_1249" data-name="Path 1249" transform="translate(953 2567)" fill="#fff">
        <path d="M 8 16.5 C 3.313080072402954 16.5 -0.5 12.68692016601562 -0.5 8 C -0.5 3.313080072402954 3.313080072402954 -0.5 8 -0.5 C 12.68692016601562 -0.5 16.5 3.313080072402954 16.5 8 C 16.5 12.68692016601562 12.68692016601562 16.5 8 16.5 Z" stroke="none"></path>
        <path d="M 8 0 C 3.581720352172852 0 0 3.581720352172852 0 8 C 0 12.41827964782715 3.581720352172852 16 8 16 C 12.41827964782715 16 16 12.41827964782715 16 8 C 16 3.581720352172852 12.41827964782715 0 8 0 M 8 -1 C 12.96261978149414 -1 17 3.037380218505859 17 8 C 17 12.96261978149414 12.96261978149414 17 8 17 C 3.037380218505859 17 -1 12.96261978149414 -1 8 C -1 3.037380218505859 3.037380218505859 -1 8 -1 Z" stroke="none" fill="#b4bcd0"></path>
      </g>
      <path id="Path_12" data-name="Path 12" d="M239.736,336.538l-1.311,4.047-1.311-4.047h-2.483l.386,1.1h1.151l1.662,4.7h1.19l2.048-5.8Z" transform="translate(721.176 2236.044)" fill="#6475ef"></path>
      <path id="Path_1205" data-name="Path 1205" d="M1.72.722A1.838,1.838,0,0,1,.962.572,1.2,1.2,0,0,1,.436.129,1.312,1.312,0,0,1,.244-.6,1.3,1.3,0,0,1,.38-1.227,1.1,1.1,0,0,1,.75-1.633a1.8,1.8,0,0,1,.534-.232,4.023,4.023,0,0,1,.63-.11q.388-.041.625-.077a.874.874,0,0,0,.345-.109.242.242,0,0,0,.107-.214v-.017a.535.535,0,0,0-.172-.426.718.718,0,0,0-.488-.151.869.869,0,0,0-.53.146.686.686,0,0,0-.261.366L.4-2.548a1.56,1.56,0,0,1,.342-.7A1.657,1.657,0,0,1,1.4-3.707a2.522,2.522,0,0,1,.937-.161,2.863,2.863,0,0,1,.711.087,1.874,1.874,0,0,1,.605.269,1.317,1.317,0,0,1,.418.468,1.42,1.42,0,0,1,.153.682v3H3.055V.021H3.02a1.237,1.237,0,0,1-.287.366A1.293,1.293,0,0,1,2.3.633,1.757,1.757,0,0,1,1.72.722ZM2.074-.13a1.026,1.026,0,0,0,.481-.109.841.841,0,0,0,.327-.294A.762.762,0,0,0,3-.952v-.472a.631.631,0,0,1-.158.068q-.1.03-.224.055t-.249.043l-.226.033a1.526,1.526,0,0,0-.379.1.612.612,0,0,0-.252.187.465.465,0,0,0-.09.291.442.442,0,0,0,.184.384A.783.783,0,0,0,2.074-.13Z" transform="translate(962 2577.696)" fill="#6475ef"></path>
    </g>
  </g>
</svg>
