<?xml version="1.0" encoding="UTF-8"?>
<svg xmlns="http://www.w3.org/2000/svg" width="48" height="48" viewBox="0 0 48 48">
  <g id="Group_1110" data-name="Group 1110" transform="translate(-991 -2534)">
    <g id="FRAX" transform="translate(991.038 2533.998)">
      <g id="Group_4662" transform="translate(-0.038 0.002)">
        <g id="Group_68" transform="translate(0 0)">
          <g id="Group_64">
            <circle id="Ellipse_58" cx="24" cy="24" r="24" transform="translate(0 0)"></circle>
          </g>
        </g>
      </g>
      <g id="Group_5571" transform="translate(12.169 12.098)">
        <path id="Path_10558" d="M-547.937-34.885c-.592.592-1.315,1.381-1.578,1.644l-.526.592-.329-.2a13.722,13.722,0,0,0-1.973-.921,10.346,10.346,0,0,0-6.312,0,9.138,9.138,0,0,0-1.841.789,1.436,1.436,0,0,0-.329.2s-.789-.723-1.71-1.644S-564.244-36-564.244-36c-.066,0-2.827,2.959-2.827,2.959s.592.592,1.381,1.315,1.512,1.447,1.644,1.578l.263.263-.263.46a9.79,9.79,0,0,0-.394,9.14,8.555,8.555,0,0,0,.394.789l.132.263-.132.2c-.46.526-2.367,2.5-2.827,2.959l-.526.526.46.46c1.052,1.052,2.5,2.367,2.5,2.367s.789-.789,1.71-1.775l1.71-1.775.329.2a9.391,9.391,0,0,0,4.142,1.381,10.4,10.4,0,0,0,5.918-1.249l.394-.263.2.132c.066.066.921.855,1.775,1.71.921.855,1.644,1.578,1.644,1.578.066,0,2.827-2.893,2.827-2.959l-1.578-1.578c-.855-.855-1.644-1.578-1.775-1.71l-.2-.132.2-.263a13.822,13.822,0,0,0,.855-1.71,10.209,10.209,0,0,0,.329-5.786,12.928,12.928,0,0,0-1.052-2.63.5.5,0,0,1-.132-.263s.723-.789,1.644-1.775a17.518,17.518,0,0,0,1.644-1.775c0-.066-2.959-2.827-2.959-2.827A6.335,6.335,0,0,1-547.937-34.885Zm-6.641,4.668a5.963,5.963,0,0,1,4.931,6.838,5.963,5.963,0,0,1-6.838,4.932,5.791,5.791,0,0,1-4.866-4.8,9.1,9.1,0,0,1-.066-1.907,6.071,6.071,0,0,1,1.71-3.419,5.881,5.881,0,0,1,3.156-1.644,4.981,4.981,0,0,1,1.973,0Z" transform="translate(567.4 36.2)" fill="#fff"></path>
      </g>
    </g>
    <g id="Group_1109" data-name="Group 1109" transform="translate(69 -2)">
      <g id="Path_1249" data-name="Path 1249" transform="translate(953 2567)" fill="#fff">
        <path d="M 8 16.5 C 3.313080072402954 16.5 -0.5 12.68692016601562 -0.5 8 C -0.5 3.313080072402954 3.313080072402954 -0.5 8 -0.5 C 12.68692016601562 -0.5 16.5 3.313080072402954 16.5 8 C 16.5 12.68692016601562 12.68692016601562 16.5 8 16.5 Z" stroke="none"></path>
        <path d="M 8 0 C 3.581720352172852 0 0 3.581720352172852 0 8 C 0 12.41827964782715 3.581720352172852 16 8 16 C 12.41827964782715 16 16 12.41827964782715 16 8 C 16 3.581720352172852 12.41827964782715 0 8 0 M 8 -1 C 12.96261978149414 -1 17 3.037380218505859 17 8 C 17 12.96261978149414 12.96261978149414 17 8 17 C 3.037380218505859 17 -1 12.96261978149414 -1 8 C -1 3.037380218505859 3.037380218505859 -1 8 -1 Z" stroke="none" fill="#b4bcd0"></path>
      </g>
      <path id="Path_12" data-name="Path 12" d="M239.736,336.538l-1.311,4.047-1.311-4.047h-2.483l.386,1.1h1.151l1.662,4.7h1.19l2.048-5.8Z" transform="translate(721.176 2236.044)" fill="#6475ef"></path>
      <path id="Path_1205" data-name="Path 1205" d="M1.72.722A1.838,1.838,0,0,1,.962.572,1.2,1.2,0,0,1,.436.129,1.312,1.312,0,0,1,.244-.6,1.3,1.3,0,0,1,.38-1.227,1.1,1.1,0,0,1,.75-1.633a1.8,1.8,0,0,1,.534-.232,4.023,4.023,0,0,1,.63-.11q.388-.041.625-.077a.874.874,0,0,0,.345-.109.242.242,0,0,0,.107-.214v-.017a.535.535,0,0,0-.172-.426.718.718,0,0,0-.488-.151.869.869,0,0,0-.53.146.686.686,0,0,0-.261.366L.4-2.548a1.56,1.56,0,0,1,.342-.7A1.657,1.657,0,0,1,1.4-3.707a2.522,2.522,0,0,1,.937-.161,2.863,2.863,0,0,1,.711.087,1.874,1.874,0,0,1,.605.269,1.317,1.317,0,0,1,.418.468,1.42,1.42,0,0,1,.153.682v3H3.055V.021H3.02a1.237,1.237,0,0,1-.287.366A1.293,1.293,0,0,1,2.3.633,1.757,1.757,0,0,1,1.72.722ZM2.074-.13a1.026,1.026,0,0,0,.481-.109.841.841,0,0,0,.327-.294A.762.762,0,0,0,3-.952v-.472a.631.631,0,0,1-.158.068q-.1.03-.224.055t-.249.043l-.226.033a1.526,1.526,0,0,0-.379.1.612.612,0,0,0-.252.187.465.465,0,0,0-.09.291.442.442,0,0,0,.184.384A.783.783,0,0,0,2.074-.13Z" transform="translate(962 2577.696)" fill="#6475ef"></path>
    </g>
  </g>
</svg>
