<?xml version="1.0" encoding="UTF-8"?>
<svg xmlns="http://www.w3.org/2000/svg" width="48" height="48" viewBox="0 0 48 48">
  <g id="Group_1112" data-name="Group 1112" transform="translate(-871 -2534)">
    <g id="usd-coin-usdc-logo" transform="translate(871 2534)">
      <path id="Path_1202" data-name="Path 1202" d="M24,48A24,24,0,1,0,0,24,23.942,23.942,0,0,0,24,48Z" fill="#2775ca"></path>
      <path id="Path_1203" data-name="Path 1203" d="M730.07,523.93c0-3.5-2.1-4.7-6.3-5.2-3-.4-3.6-1.2-3.6-2.6s1-2.3,3-2.3c1.8,0,2.8.6,3.3,2.1a.752.752,0,0,0,.7.5h1.6a.684.684,0,0,0,.7-.7v-.1a5,5,0,0,0-4.5-4.1v-2.4c0-.4-.3-.7-.8-.8h-1.5c-.4,0-.7.3-.8.8v2.3c-3,.4-4.9,2.4-4.9,4.9,0,3.3,2,4.6,6.2,5.1,2.8.5,3.7,1.1,3.7,2.7s-1.4,2.7-3.3,2.7c-2.6,0-3.5-1.1-3.8-2.6a.73.73,0,0,0-.7-.6h-1.7a.684.684,0,0,0-.7.7v.1c.4,2.5,2,4.3,5.3,4.8v2.4c0,.4.3.7.8.8h1.5c.4,0,.7-.3.8-.8v-2.4C728.07,528.73,730.07,526.63,730.07,523.93Z" transform="translate(-699.47 -496.13)" fill="#fff"></path>
      <path id="Path_1204" data-name="Path 1204" d="M260.914,322.97a14.964,14.964,0,0,1,0-28.1,1,1,0,0,0,.6-1v-1.4a.76.76,0,0,0-.6-.8.6.6,0,0,0-.4.1,18,18,0,0,0,0,34.3.608.608,0,0,0,.9-.4c.1-.1.1-.2.1-.4v-1.4A1.332,1.332,0,0,0,260.914,322.97Zm10.6-31.2a.608.608,0,0,0-.9.4c-.1.1-.1.2-.1.4v1.4a1.326,1.326,0,0,0,.6,1,14.964,14.964,0,0,1,0,28.1,1,1,0,0,0-.6,1v1.4a.76.76,0,0,0,.6.8.6.6,0,0,0,.4-.1,18.072,18.072,0,0,0,0-34.4Z" transform="translate(-242.014 -284.67)" fill="#fff"></path>
    </g>
    <g id="Group_1107" data-name="Group 1107" transform="translate(-51 -2)">
      <g id="Path_1249" data-name="Path 1249" transform="translate(953 2567)" fill="#fff">
        <path d="M 8 16.5 C 3.313080072402954 16.5 -0.5 12.68692016601562 -0.5 8 C -0.5 3.313080072402954 3.313080072402954 -0.5 8 -0.5 C 12.68692016601562 -0.5 16.5 3.313080072402954 16.5 8 C 16.5 12.68692016601562 12.68692016601562 16.5 8 16.5 Z" stroke="none"></path>
        <path d="M 8 0 C 3.581720352172852 0 0 3.581720352172852 0 8 C 0 12.41827964782715 3.581720352172852 16 8 16 C 12.41827964782715 16 16 12.41827964782715 16 8 C 16 3.581720352172852 12.41827964782715 0 8 0 M 8 -1 C 12.96261978149414 -1 17 3.037380218505859 17 8 C 17 12.96261978149414 12.96261978149414 17 8 17 C 3.037380218505859 17 -1 12.96261978149414 -1 8 C -1 3.037380218505859 3.037380218505859 -1 8 -1 Z" stroke="none" fill="#b4bcd0"></path>
      </g>
      <path id="Path_12" data-name="Path 12" d="M239.736,336.538l-1.311,4.047-1.311-4.047h-2.483l.386,1.1h1.151l1.662,4.7h1.19l2.048-5.8Z" transform="translate(721.176 2236.044)" fill="#6475ef"></path>
      <path id="Path_1205" data-name="Path 1205" d="M1.72.722A1.838,1.838,0,0,1,.962.572,1.2,1.2,0,0,1,.436.129,1.312,1.312,0,0,1,.244-.6,1.3,1.3,0,0,1,.38-1.227,1.1,1.1,0,0,1,.75-1.633a1.8,1.8,0,0,1,.534-.232,4.023,4.023,0,0,1,.63-.11q.388-.041.625-.077a.874.874,0,0,0,.345-.109.242.242,0,0,0,.107-.214v-.017a.535.535,0,0,0-.172-.426.718.718,0,0,0-.488-.151.869.869,0,0,0-.53.146.686.686,0,0,0-.261.366L.4-2.548a1.56,1.56,0,0,1,.342-.7A1.657,1.657,0,0,1,1.4-3.707a2.522,2.522,0,0,1,.937-.161,2.863,2.863,0,0,1,.711.087,1.874,1.874,0,0,1,.605.269,1.317,1.317,0,0,1,.418.468,1.42,1.42,0,0,1,.153.682v3H3.055V.021H3.02a1.237,1.237,0,0,1-.287.366A1.293,1.293,0,0,1,2.3.633,1.757,1.757,0,0,1,1.72.722ZM2.074-.13a1.026,1.026,0,0,0,.481-.109.841.841,0,0,0,.327-.294A.762.762,0,0,0,3-.952v-.472a.631.631,0,0,1-.158.068q-.1.03-.224.055t-.249.043l-.226.033a1.526,1.526,0,0,0-.379.1.612.612,0,0,0-.252.187.465.465,0,0,0-.09.291.442.442,0,0,0,.184.384A.783.783,0,0,0,2.074-.13Z" transform="translate(962 2577.696)" fill="#6475ef"></path>
    </g>
  </g>
</svg>
