<?xml version="1.0" encoding="UTF-8"?>
<svg xmlns="http://www.w3.org/2000/svg" width="161.405" height="42.891" viewBox="0 0 161.405 42.891">
  <g transform="translate(0.001 0.491)">
    <g transform="translate(-0.001 -0.491)">
      <g transform="translate(26.895 12.351)">
        <path d="M180.124,82.545a3.118,3.118,0,0,0-.164-.395A1.357,1.357,0,0,1,180.124,82.545Z" transform="translate(-179.96 -82.15)" fill="#fff"></path>
      </g>
      <g transform="translate(56.052 11.919)">
        <path d="M385.892,84.35a3.555,3.555,0,0,0-3.708-2.958c-3.186,0-4.519,2.811-4.519,5.666s1.333,5.666,4.519,5.666c2.312,0,3.582-1.729,3.79-3.895h2.541a6.094,6.094,0,0,1-6.332,6.02c-4.457,0-7.123-3.54-7.123-7.789s2.666-7.789,7.123-7.789c3.354.021,6,1.874,6.311,5.081h-2.6Z" transform="translate(-375.06 -79.269)" fill="#fff"></path>
        <path d="M475.42,112.786c0-3.291,1.979-5.666,5.435-5.666s5.435,2.375,5.435,5.666c0,3.312-1.979,5.687-5.435,5.687S475.42,116.1,475.42,112.786Zm8.5,0c0-1.853-.937-3.79-3.062-3.79s-3.062,1.937-3.062,3.79c0,1.874.937,3.811,3.062,3.811S483.918,114.66,483.918,112.786Z" transform="translate(-460.421 -102.956)" fill="#fff"></path>
        <path d="M561.83,81.62H564.2v2.249H561.83Zm0,4.1H564.2V96.492H561.83Z" transform="translate(-533.918 -81.267)" fill="#fff"></path>
        <path d="M595,107.421h2.249V109l.042.042a3.858,3.858,0,0,1,3.354-1.916c2.333,0,3.811,1.249,3.811,3.666v7.393h-2.375v-6.769c-.042-1.687-.708-2.417-2.1-2.417a2.625,2.625,0,0,0-2.6,2.832v6.353H595Z" transform="translate(-562.13 -102.965)" fill="#fff"></path>
        <path d="M686.293,94.484h-1.666l-.4-1.75a5.363,5.363,0,0,1-4.477,2.1c-4.457,0-7.123-3.54-7.123-7.789s2.666-7.789,7.123-7.789c3.249,0,5.978,1.729,6.374,5.081h-2.541c-.25-1.958-1.958-2.958-3.832-2.958-3.186,0-4.519,2.811-4.519,5.666s1.333,5.666,4.519,5.666a3.779,3.779,0,0,0,4.165-4.083h-3.957V86.653h6.332v7.831Z" transform="translate(-628.159 -79.26)" fill="#fff"></path>
        <path d="M779.665,113.4c0,1.687.916,3.186,2.895,3.186a2.5,2.5,0,0,0,2.624-1.792h2.249a4.715,4.715,0,0,1-4.874,3.666c-3.375,0-5.27-2.354-5.27-5.666,0-3.062,2-5.687,5.207-5.687,3.4,0,5.477,3.062,5.081,6.29h-7.913Zm5.54-1.562a2.771,2.771,0,1,0-5.54,0Z" transform="translate(-717.177 -102.948)" fill="#fff"></path>
        <path d="M862.569,111.025A2.276,2.276,0,0,0,860.112,109c-1.228,0-2.958.646-2.958,3.916,0,1.792.792,3.687,2.853,3.687a2.557,2.557,0,0,0,2.561-2.458h2.375c-.438,2.792-2.165,4.333-4.936,4.333-3.375,0-5.228-2.4-5.228-5.561,0-3.249,1.771-5.79,5.311-5.79,2.5,0,4.624,1.249,4.853,3.895Z" transform="translate(-783.087 -102.965)" fill="#fff"></path>
        <path d="M936.17,81.62h2.375v8.456l4.291-4.353h2.916l-4.123,3.957,4.519,6.81h-2.895l-3.291-5.228-1.417,1.375V96.49H936.17Z" transform="translate(-852.313 -81.267)" fill="#fff"></path>
        <path d="M1007.25,112.786c0-3.291,1.979-5.666,5.437-5.666s5.435,2.375,5.435,5.666c0,3.312-1.979,5.687-5.435,5.687S1007.25,116.1,1007.25,112.786Zm8.5,0c0-1.853-.937-3.79-3.062-3.79s-3.062,1.937-3.062,3.79c0,1.874.937,3.811,3.062,3.811S1015.748,114.66,1015.748,112.786Z" transform="translate(-912.77 -102.956)" fill="#fff"></path>
      </g>
      <g transform="translate(0 0)">
        <path d="M21.347-.491a21.445,21.445,0,1,0,21.542,21.35A21.445,21.445,0,0,0,21.347-.491ZM18.632,19.9a3.833,3.833,0,1,1,3.833-3.833A3.834,3.834,0,0,1,18.632,19.9Zm3.058,4.146.019-.024L21.73,24a6.869,6.869,0,0,0,3.591.991,16.882,16.882,0,0,0,3.775-.314,20.664,20.664,0,0,0,3.669-1.134,18.505,18.505,0,0,0,1.962-.928l.012-.007c.393-.236.777-.486,1.155-.743.082-.058.161-.12.239-.182l.009.01.033.039a13.953,13.953,0,0,1-3.28,2.1,20.986,20.986,0,0,1-3.684,1.341,11.542,11.542,0,0,1-3.929.453A5.418,5.418,0,0,1,21.69,24.047Zm9.84-4.146a.831.831,0,1,1,.835.826A.833.833,0,0,1,31.529,19.9ZM24.961,40.47c-.828-5.8,4.24-11.487,7.1-14.395.649-.659,1.651-1.568,2.584-2.533,3.709-3.469,4.448-7.613-3.144-9.684-1.439-.417-2.931-1.007-4.442-1.6a3.119,3.119,0,0,0-.164-.395,4.251,4.251,0,0,0-.936-1.033c-.986-.856-2.841-.834-4.442-.454a11.182,11.182,0,0,0-5.193-.163c-7.341,2.022-8.522,5.6-8.807,9.917C7.126,24.79,6.9,28.264,5.134,32.234A19.83,19.83,0,1,1,24.961,40.47Z" transform="translate(0.001 0.491)" fill="#fff"></path>
        <path d="M112.024,95.206a2.7,2.7,0,1,1-2.7-2.7A2.7,2.7,0,0,1,112.024,95.206Z" transform="translate(-90.694 -78.611)" fill="#fff"></path>
      </g>
    </g>
  </g>
</svg>
