<?xml version="1.0" encoding="UTF-8"?>
<svg xmlns="http://www.w3.org/2000/svg" xmlns:xlink="http://www.w3.org/1999/xlink" width="54.309" height="55.125" viewBox="0 0 54.309 55.125">
  <defs>
    <clipPath id="a">
      <rect width="54.309" height="55.125" transform="translate(0.012 0.805)" fill="#fff"></rect>
    </clipPath>
  </defs>
  <g transform="translate(-0.012 -0.805)" clip-path="url(#a)">
    <path d="M47.238,33.744a2.9,2.9,0,0,1-2.96.2C43.185,33.325,42.6,31.877,42.6,29.9V23.857c0-2.9-1.15-4.968-3.073-5.529-3.251-.951-5.678,3.031-6.615,4.528l-5.749,9.3V20.805c-.064-2.619-.916-4.187-2.527-4.656-1.065-.312-2.662-.185-4.216,2.186L7.563,38.967a22.711,22.711,0,0,1-2.583-10.6A22.382,22.382,0,0,1,27.159,5.816,22.412,22.412,0,0,1,49.374,28.364v.128c.121,2.406-.66,4.322-2.129,5.252Zm7.1-5.373V28.25A27.432,27.432,0,0,0,27.159.8,27.415,27.415,0,0,0,.012,28.364,27.394,27.394,0,0,0,27.159,55.93a26.835,26.835,0,0,0,18.453-7.353,2.527,2.527,0,0,0,.128-3.549,2.434,2.434,0,0,0-3.449-.163,21.952,21.952,0,0,1-31.633-1.476l11.569-18.6v8.581c0,4.124,1.6,5.458,2.938,5.848s3.393.121,5.543-3.371L37.1,25.511c.2-.334.39-.617.561-.866V29.9c0,3.854,1.547,6.934,4.258,8.453a7.807,7.807,0,0,0,7.956-.319c2.981-1.938,4.606-5.444,4.436-9.667Z" transform="translate(0 0)" fill="#fff"></path>
  </g>
</svg>
