<?xml version="1.0" encoding="UTF-8"?>
<svg xmlns="http://www.w3.org/2000/svg" width="43.984" height="30.788" viewBox="0 0 43.984 30.788">
  <path d="M22.3,14.144a6.6,6.6,0,1,0-6.6-6.6A6.6,6.6,0,0,0,22.3,14.144Zm0,17.593c7.287,0,13.195-2.954,13.195-6.6s-5.908-6.6-13.195-6.6S9.11,21.5,9.11,25.139,15.017,31.737,22.3,31.737ZM9.949,18.584C4.517,18.919.313,21.234.313,24.04c0,2.313,2.858,4.293,6.9,5.1A6.7,6.7,0,0,1,5.811,25.14C5.811,22.625,7.374,20.33,9.949,18.584ZM38.8,25.14a6.7,6.7,0,0,1-1.407,4.005c4.047-.812,6.9-2.791,6.9-5.1,0-2.806-4.2-5.121-9.636-5.456C37.235,20.33,38.8,22.625,38.8,25.14ZM30.481,13.122A9.924,9.924,0,0,0,32,5.543a4.4,4.4,0,1,1-1.516,7.579ZM11.308,5.347a4.4,4.4,0,0,1,1.3.2,9.925,9.925,0,0,0,1.516,7.579,4.4,4.4,0,1,1-2.819-7.775Z" transform="translate(-0.313 -0.949)" fill="#259da8" fill-rule="evenodd"></path>
</svg>
