<?xml version="1.0" encoding="UTF-8"?>
<svg xmlns="http://www.w3.org/2000/svg" width="33.986" height="37.762" viewBox="0 0 33.986 37.762">
  <path d="M13.243,1.463a7.678,7.678,0,0,1,7.849,0l9.144,5.415A8.091,8.091,0,0,1,34.16,13.85v10.83a8.091,8.091,0,0,1-3.924,6.972l-9.144,5.415a7.678,7.678,0,0,1-7.849,0L4.1,31.653A8.091,8.091,0,0,1,.174,24.681V13.85A8.091,8.091,0,0,1,4.1,6.878Zm3.924,9.778a2.36,2.36,0,0,0-2.36,2.36,1.416,1.416,0,0,1-2.832,0,5.192,5.192,0,1,1,9.561,2.807,17,17,0,0,1-1.06,1.429l-.19.235c-.292.362-.56.693-.808,1.034a3.654,3.654,0,0,0-.895,2.047V22.1a1.416,1.416,0,1,1-2.832,0v-.944a6.373,6.373,0,0,1,1.437-3.713c.294-.4.616-.8.909-1.165l.172-.213a14.345,14.345,0,0,0,.885-1.186,2.361,2.361,0,0,0-1.987-3.634Zm1.416,15.577a1.416,1.416,0,1,0-2.832,0v1.888a1.416,1.416,0,1,0,2.832,0Z" transform="translate(-0.174 -0.385)" fill="#259da8" fill-rule="evenodd"></path>
</svg>
