<?xml version="1.0" encoding="UTF-8"?>
<svg xmlns="http://www.w3.org/2000/svg" width="48" height="48" viewBox="0 0 48 48">
  <g transform="translate(0.038 -0.002)">
    <g transform="translate(-0.038 0.002)">
      <g transform="translate(0 0)">
        <circle cx="24" cy="24" r="24" transform="translate(0 0)"></circle>
      </g>
    </g>
    <g transform="translate(12.169 12.098)">
      <path d="M-547.937-34.885c-.592.592-1.315,1.381-1.578,1.644l-.526.592-.329-.2a13.722,13.722,0,0,0-1.973-.921,10.346,10.346,0,0,0-6.312,0,9.138,9.138,0,0,0-1.841.789,1.436,1.436,0,0,0-.329.2s-.789-.723-1.71-1.644S-564.244-36-564.244-36c-.066,0-2.827,2.959-2.827,2.959s.592.592,1.381,1.315,1.512,1.447,1.644,1.578l.263.263-.263.46a9.79,9.79,0,0,0-.394,9.14,8.555,8.555,0,0,0,.394.789l.132.263-.132.2c-.46.526-2.367,2.5-2.827,2.959l-.526.526.46.46c1.052,1.052,2.5,2.367,2.5,2.367s.789-.789,1.71-1.775l1.71-1.775.329.2a9.391,9.391,0,0,0,4.142,1.381,10.4,10.4,0,0,0,5.918-1.249l.394-.263.2.132c.066.066.921.855,1.775,1.71.921.855,1.644,1.578,1.644,1.578.066,0,2.827-2.893,2.827-2.959l-1.578-1.578c-.855-.855-1.644-1.578-1.775-1.71l-.2-.132.2-.263a13.822,13.822,0,0,0,.855-1.71,10.209,10.209,0,0,0,.329-5.786,12.928,12.928,0,0,0-1.052-2.63.5.5,0,0,1-.132-.263s.723-.789,1.644-1.775a17.518,17.518,0,0,0,1.644-1.775c0-.066-2.959-2.827-2.959-2.827A6.335,6.335,0,0,1-547.937-34.885Zm-6.641,4.668a5.963,5.963,0,0,1,4.931,6.838,5.963,5.963,0,0,1-6.838,4.932,5.791,5.791,0,0,1-4.866-4.8,9.1,9.1,0,0,1-.066-1.907,6.071,6.071,0,0,1,1.71-3.419,5.881,5.881,0,0,1,3.156-1.644,4.981,4.981,0,0,1,1.973,0Z" transform="translate(567.4 36.2)" fill="#fff"></path>
    </g>
  </g>
</svg>
