<?xml version="1.0" encoding="UTF-8"?>
<svg xmlns="http://www.w3.org/2000/svg" width="113.107" height="11.71" viewBox="0 0 113.107 11.71">
  <g transform="translate(-0.539 -0.547)">
    <path d="M2.5,12.257H.762a.228.228,0,0,1-.107-.025.181.181,0,0,1-.083-.074.166.166,0,0,1-.033-.107.226.226,0,0,1,.017-.107L6.208.662A.234.234,0,0,1,6.283.58.166.166,0,0,1,6.39.547H8.131a.228.228,0,0,1,.107.025.181.181,0,0,1,.083.074.166.166,0,0,1,.033.107A.226.226,0,0,1,8.337.86L2.685,12.141a.234.234,0,0,1-.074.083A.166.166,0,0,1,2.5,12.257Z" fill="#8ce605"></path>
    <path d="M9.705,12.257h-1.8a.22.22,0,0,1-.1-.025.2.2,0,0,1-.074-.066.173.173,0,0,1-.033-.091.209.209,0,0,1,.017-.1L13.394.646A.194.194,0,0,1,13.46.572a.166.166,0,0,1,.091-.025h1.791a.22.22,0,0,1,.1.025.194.194,0,0,1,.074.066.172.172,0,0,1,.033.091.21.21,0,0,1-.016.1L9.854,12.158a.2.2,0,0,1-.066.074A.139.139,0,0,1,9.705,12.257Z" transform="translate(1.974)" fill="#8ce605"></path>
    <path d="M15.159,1.7a.241.241,0,0,0-.272.272v8.244a.241.241,0,0,0,.272.272h1.287a.237.237,0,0,0,.107-.008.214.214,0,0,0,.091-.058.287.287,0,0,0,.058-.1.266.266,0,0,0,.008-.116V6.865h5.57v3.342a.275.275,0,0,0,.008.116.31.31,0,0,0,.058.1.214.214,0,0,0,.091.058.238.238,0,0,0,.107.008h1.287a.241.241,0,0,0,.272-.272V1.972a.241.241,0,0,0-.272-.272H22.553a.238.238,0,0,0-.107.008.214.214,0,0,0-.091.058.285.285,0,0,0-.058.1.266.266,0,0,0-.008.116V5.248h-5.57V1.98a.273.273,0,0,0-.008-.116.307.307,0,0,0-.058-.1.214.214,0,0,0-.091-.058.238.238,0,0,0-.107-.008Zm18.4,0c-.5,0-.858.2-1.246.957l-3.9,7.551c-.083.165-.049.289.157.289h1.543a.232.232,0,0,0,.165-.033.242.242,0,0,0,.107-.132L31.2,8.714H36.8l.842,1.617a.216.216,0,0,0,.107.132.232.232,0,0,0,.165.033h1.51c.19,0,.223-.124.14-.289L35.624,2.657c-.4-.751-.759-.957-1.37-.957Zm.264,1.873a.2.2,0,0,1,.049-.066.139.139,0,0,1,.083-.025h.074a.159.159,0,0,1,.083.025.129.129,0,0,1,.049.066l1.89,3.68h-4.1ZM43.67,1.7a.241.241,0,0,0-.272.272v5.2c0,2.41.924,3.317,3.334,3.317h4.894a.237.237,0,0,0,.107-.008.214.214,0,0,0,.091-.058.287.287,0,0,0,.058-.1.266.266,0,0,0,.008-.116V8.978a.275.275,0,0,0-.008-.116.31.31,0,0,0-.058-.1.214.214,0,0,0-.091-.058.237.237,0,0,0-.107-.008H46.806c-1.221,0-1.584-.388-1.584-1.725V1.963a.275.275,0,0,0-.008-.116.31.31,0,0,0-.058-.1.214.214,0,0,0-.091-.058.238.238,0,0,0-.107-.008H43.67Zm12.948,0a.307.307,0,0,0-.149.017.254.254,0,0,0-.124.083.343.343,0,0,0-.074.132.455.455,0,0,0-.017.149v8.038a.3.3,0,0,0,.017.149.417.417,0,0,0,.074.132.327.327,0,0,0,.124.083.307.307,0,0,0,.149.017H63.69c1.584,0,2.1-.842,2.1-2.17V7.6a1.729,1.729,0,0,0-.19-.932,1.645,1.645,0,0,0-.635-.685,1.844,1.844,0,0,0,.586-.693,1.907,1.907,0,0,0,.182-.908v-.6c0-1.395-.619-2.071-2.261-2.071H56.617Zm6.346,5.026c.784,0,1.032.272,1.032.792V8c0,.528-.247.767-.883.767H58.235c-.107,0-.157-.05-.157-.165V6.725ZM58.086,3.6c0-.116.049-.165.157-.165h4.869c.619,0,.883.239.883.751v.429c0,.487-.239.743-1.023.743H58.094V3.6ZM73.749,1.7c-2.4,0-3.334.908-3.334,3.317V7.179c0,2.41.924,3.317,3.334,3.317h3.672c2.418,0,3.334-.908,3.334-3.317V5.017c0-2.41-.916-3.317-3.334-3.317Zm-1.51,3.458c0-1.32.355-1.708,1.584-1.708h3.532c1.23,0,1.584.388,1.584,1.708V7.038c0,1.32-.355,1.708-1.584,1.708H73.823c-1.23,0-1.584-.388-1.584-1.708ZM85.9,1.7a.307.307,0,0,0-.148.017.254.254,0,0,0-.124.083.343.343,0,0,0-.074.132.455.455,0,0,0-.017.149v8.145a.238.238,0,0,0,.272.272h1.279a.238.238,0,0,0,.107-.008.214.214,0,0,0,.091-.058.287.287,0,0,0,.058-.1.266.266,0,0,0,.008-.116v-2.5H91.2l1.882,2.616a.312.312,0,0,0,.33.165h1.535a.2.2,0,0,0,.1-.025.18.18,0,0,0,.074-.083.165.165,0,0,0,.016-.107.137.137,0,0,0-.041-.1l-2.03-2.665C94.313,7.278,94.841,6.436,94.841,5V4.282c0-1.7-.734-2.591-2.558-2.591Zm1.461,1.873c0-.1.049-.149.157-.149h4.407c.809,0,1.106.363,1.106,1.122v.528c0,.751-.3,1.122-1.106,1.122H87.373V3.573ZM100.7,1.7c-.726,0-1.073.289-1.073,1.3v7.212a.237.237,0,0,0,.272.272h1.246a.238.238,0,0,0,.107-.008.214.214,0,0,0,.091-.058.285.285,0,0,0,.058-.1.264.264,0,0,0,.008-.116V3.647c0-.091.025-.124.1-.124h.107a.188.188,0,0,1,.091.025.25.25,0,0,1,.066.066l4.44,6.131c.479.668.652.743,1.378.743h1.023c.726,0,1.073-.289,1.073-1.3V1.972a.276.276,0,0,0-.008-.116.31.31,0,0,0-.058-.1.214.214,0,0,0-.091-.058.237.237,0,0,0-.107-.008h-1.246a.238.238,0,0,0-.107.008.213.213,0,0,0-.091.058.283.283,0,0,0-.058.1.264.264,0,0,0-.008.116v6.56c0,.091-.033.124-.1.124h-.107a.3.3,0,0,1-.091-.017.25.25,0,0,1-.066-.066l-4.423-6.131a1.281,1.281,0,0,0-1.378-.743Z" transform="translate(3.956 0.312)" fill="#fff"></path>
  </g>
</svg>
