<?xml version="1.0" encoding="UTF-8"?>
<svg xmlns="http://www.w3.org/2000/svg" xmlns:xlink="http://www.w3.org/1999/xlink" width="100" height="100" viewBox="0 0 100 100">
  <defs>
    <clipPath id="a">
      <rect width="100" height="100" fill="none"></rect>
    </clipPath>
  </defs>
  <g clip-path="url(#a)">
    <path d="M100,50A50,50,0,1,1,50,0a50,50,0,0,1,50,50" fill="#7e61f8"></path>
    <path d="M6.992,44.177a3.574,3.574,0,0,0,3.531-3.612V20.877a9.285,9.285,0,0,1,9.4-9.15,9.055,9.055,0,0,1,9.15,9.144V40.565l.006.069a3.666,3.666,0,0,0,3.606,3.544l.044-.006.037.006A3.574,3.574,0,0,0,36.3,40.565V20.877a9.289,9.289,0,0,1,9.4-9.15,9.054,9.054,0,0,1,9.156,9.15V40.565a3.659,3.659,0,0,0,3.613,3.612,3.706,3.706,0,0,0,3.612-3.612V20.877A16.4,16.4,0,0,0,45.7,4.5a16.786,16.786,0,0,0-12.937,6.244A16.347,16.347,0,0,0,19.923,4.5,16.723,16.723,0,0,0,3.3,20.877V40.565a3.848,3.848,0,0,0,3.694,3.612" transform="translate(17.315 23.635)" fill="#fff"></path>
  </g>
</svg>
