<?xml version="1.0" encoding="UTF-8"?>
<svg xmlns="http://www.w3.org/2000/svg" width="161" height="22" viewBox="0 0 161 22" fill="none">
  <path fill-rule="evenodd" clip-rule="evenodd" d="M44.3948 0.486991C44.395 0.60462 44.3814 4.62061 44.3645 9.41124C44.3307 19.0484 44.2931 18.6714 45.4137 19.9501C46.3881 21.0615 46.9943 21.2585 49.6533 21.327L52.0135 21.3879V19.9621V18.5362H50.0483C48.3073 18.5362 48.033 18.4967 47.6441 18.1903L47.2052 17.8446L47.2492 13.1716L47.2931 8.49874L49.6533 8.45278L52.0135 8.40666V7.00108V5.59533H49.6161H47.2188L47.173 2.98226L47.1275 0.369196L45.7611 0.321082C44.7305 0.284748 44.3946 0.325396 44.3948 0.486991ZM70.4811 5.38197C66.3307 6.38472 63.7726 9.42584 63.7425 13.3931C63.7178 16.6379 65.567 19.4597 68.7032 20.9625C69.8704 21.5216 70.1387 21.5828 71.7233 21.6512C73.28 21.7184 73.5985 21.6804 74.7606 21.2888C77.6766 20.3065 79.6517 18.2028 80.4048 15.2771C80.7389 13.979 80.7368 12.9486 80.3972 11.5787C80.0237 10.0711 79.503 9.1058 78.4528 7.9738C76.7615 6.15063 74.641 5.24659 72.141 5.28276C71.4102 5.29337 70.6633 5.338 70.4811 5.38197ZM106.454 5.51254C102.809 6.51629 100.211 9.81771 100.211 13.4468C100.211 16.9236 102.531 20.0712 105.997 21.2966C107.203 21.7232 109.299 21.8192 110.641 21.5095C113.027 20.9587 115.333 19.0564 116.388 16.767C117.404 14.5644 117.349 11.9442 116.24 9.72082C115.303 7.84223 113.231 6.18796 110.988 5.52814C109.904 5.20909 107.585 5.20113 106.454 5.51254ZM0.542897 13.5069L0.585961 21.4396L2.11603 21.4873L3.64627 21.535L3.6895 15.0168L3.7329 8.49874H7.16405C10.2365 8.49874 10.626 8.52976 10.8907 8.79488C11.1618 9.06648 11.1901 9.59689 11.2334 15.2239L11.2806 21.3567H12.6897H14.0987L14.077 14.9277L14.0553 8.49874H17.5311C20.7167 8.49874 21.0359 8.52512 21.3552 8.81479C21.6973 9.12504 21.7036 9.24168 21.7036 15.2438V21.3567H23.1114H24.5192V15.0468C24.5192 10.1278 24.47 8.61919 24.296 8.20309C23.9647 7.41137 23.2565 6.64155 22.3901 6.13122L21.6207 5.67828H17.7285H13.8362L13.7534 6.75669L13.6706 7.8351L13.2158 7.23965C12.9657 6.91215 12.3694 6.42687 11.8907 6.16125L11.0205 5.67828L5.76019 5.62619L0.5 5.57426L0.542897 13.5069ZM27.9991 11.8566C28.0006 18.0911 28.0026 18.1256 28.3918 18.9628C28.6068 19.4255 29.0695 20.0409 29.42 20.3302C30.6029 21.3069 31.0326 21.3665 36.5362 21.3177L41.4961 21.2737V19.9465V18.6192L36.5029 18.5362C30.3613 18.4342 30.781 18.6182 30.8492 16.0585L30.8959 14.3056L35.6647 14.2616L40.4335 14.2175L40.3851 12.9343L40.3367 11.651L35.5688 11.607L30.8007 11.5629L30.8484 10.0309L30.8959 8.49874L36.196 8.41578L41.4961 8.33283V7.00556V5.67828L34.7468 5.63498L27.9974 5.59168L27.9991 11.8566ZM58.3624 5.75444C57.5763 5.94208 56.4517 6.65748 56.0204 7.24446C55.1954 8.36734 55.1605 8.69202 55.1605 15.239V21.3567H56.5625H57.9645L58.0117 15.2239C58.055 9.59855 58.0835 9.06648 58.3543 8.79488C58.5992 8.54917 59.0015 8.48928 60.7145 8.44365L62.7794 8.38874V6.99195V5.59533L60.8332 5.61225C59.7629 5.62171 58.6509 5.68558 58.3624 5.75444ZM83.4829 13.4657V21.3567H84.8907H86.2986V14.9723V8.588L86.68 8.4921C86.8897 8.43934 88.6014 8.41927 90.4838 8.44747C93.5059 8.49276 93.941 8.53341 94.2018 8.79488C94.4728 9.06648 94.5011 9.59772 94.5443 15.2239L94.5916 21.3567H95.9936H97.3956V15.3312C97.3956 8.49575 97.3407 8.08579 96.2801 7.01949C94.9415 5.67331 95.0018 5.68475 88.9072 5.62652L83.4829 5.57476V13.4657ZM119.921 13.5483V21.5226H121.41H122.899L122.942 15.0107L122.985 8.49874L125.967 8.44863C129.452 8.3899 130.074 8.50687 130.34 9.27204C130.458 9.61033 130.521 11.8179 130.521 15.5746V21.3567H131.936H133.351L133.329 14.9277L133.308 8.49874H136.795C139.921 8.49874 140.313 8.52943 140.578 8.79488C140.847 9.06498 140.88 9.62376 140.956 15.1824L141.039 21.2737L142.405 21.3218L143.772 21.3701L143.764 15.1832C143.756 8.52329 143.732 8.30064 142.87 7.16864C142.626 6.84811 142.039 6.38207 141.567 6.13304C140.713 5.68326 140.681 5.67978 136.857 5.62436L133.006 5.56862V6.5498C133.006 7.08934 132.962 7.57429 132.91 7.62722C132.857 7.68014 132.545 7.42597 132.217 7.06213C131.889 6.69846 131.317 6.23823 130.947 6.03963C130.303 5.69421 130.044 5.67596 125.097 5.62619L119.921 5.57393V13.5483ZM146.991 5.99069C146.937 6.2082 146.918 9.02666 146.95 12.2538C147.013 18.7103 147.012 18.7051 148.083 19.9269C148.382 20.2678 148.931 20.7103 149.304 20.9102C149.955 21.259 150.197 21.2757 155.241 21.3238L160.5 21.3739V19.9551V18.5362H155.636C149.522 18.5362 149.867 18.685 149.936 16.0728L149.983 14.3056L154.703 14.2226L159.423 14.1396V12.8953V11.651L154.655 11.607L149.887 11.5629L149.935 10.0309L149.983 8.49874L155.241 8.45494L160.5 8.41114V7.00323V5.59533H153.795H147.09L146.991 5.99069ZM70.8951 7.97928C69.6471 8.35075 69.35 8.51383 68.4579 9.31717C67.9491 9.77541 67.4103 10.4762 67.1354 11.0366C66.7314 11.8607 66.6718 12.1754 66.6724 13.476C66.6734 15.2602 66.9967 16.1096 68.1416 17.3355C69.0095 18.265 69.9771 18.7944 71.291 19.0587C72.0628 19.214 72.4173 19.1989 73.3393 18.9709C75.6159 18.4081 77.1103 16.8801 77.6175 14.5964C77.8689 13.4644 77.8684 13.2996 77.6107 12.2657C77.2743 10.9164 76.7445 9.96919 75.9206 9.2445C74.5979 8.08131 72.4065 7.5295 70.8951 7.97928ZM107.582 7.89748C104.486 8.71193 102.521 11.7114 103.197 14.5889C103.485 15.8153 103.926 16.6251 104.762 17.4621C106.12 18.8226 107.807 19.3781 109.543 19.0361C111.449 18.6603 112.951 17.5404 113.741 15.9054C114.128 15.1034 114.194 14.755 114.2 13.476C114.206 12.1725 114.148 11.864 113.748 11.0466C113.196 9.92058 112.094 8.86158 110.909 8.31823C109.969 7.88736 108.383 7.68661 107.582 7.89748Z" fill="white"></path>
</svg>
