<?xml version="1.0" encoding="UTF-8"?>
<svg xmlns="http://www.w3.org/2000/svg" xmlns:xlink="http://www.w3.org/1999/xlink" width="48" height="48" viewBox="0 0 48 48">
  <defs>
    <linearGradient id="a" x1="0.154" y1="0.166" x2="0.868" y2="0.819" gradientUnits="objectBoundingBox">
      <stop offset="0" stop-color="#507ce7"></stop>
      <stop offset="1" stop-color="#54c6e5"></stop>
    </linearGradient>
  </defs>
  <g transform="translate(-871 -2812)">
    <circle cx="24" cy="24" r="24" transform="translate(871 2812)" fill="url(#a)"></circle>
    <path d="M98.52,245.428c.131-2.906-1.017-4.8-3.435-5.324-.134-.029-.27-.052-.409-.07a4.069,4.069,0,0,0,2.2-4.448h0c-.343-3.114-3.042-4.122-6.439-4.364l-.057-4.318-2.629.033.057,4.208c-.687.012-1.393.031-2.1.057l-.053-4.232L83.036,227l.031,4.312c-.57.019-1.128.036-1.676.039v-.012l-3.626.048.038,2.8s1.942-.06,1.908-.026a1.357,1.357,0,0,1,1.529,1.134l.06,4.934.091,6.889a.929.929,0,0,1-.97.883c.034.029-1.908.024-1.908.024l-.462,3.15,3.425-.045c.637,0,1.262,0,1.877-.01l.057,4.371,2.619-.036-.065-4.321h2.1l.055,4.294,2.635-.036-.046-4.355C95.115,250.733,98.192,249.579,98.52,245.428Zm-12.642-5.894-.069-5.249c1.484-.015,6.138-.55,6.183,2.549h0C92.027,239.8,87.36,239.517,85.878,239.534Zm.1,8.433-.076-5.788c1.783-.019,7.361-.613,7.406,2.8.045,3.261-5.547,2.964-7.33,2.99Z" transform="matrix(0.966, 0.259, -0.259, 0.966, 872.418, 2580.197)" fill="#fff"></path>
  </g>
</svg>
