<?xml version="1.0" encoding="UTF-8"?>
<svg xmlns="http://www.w3.org/2000/svg" xmlns:xlink="http://www.w3.org/1999/xlink" width="48" height="48" viewBox="0 0 48 48">
  <defs>
    <linearGradient id="a" x1="0.154" y1="0.166" x2="0.868" y2="0.819" gradientUnits="objectBoundingBox">
      <stop offset="0" stop-color="#507ce7"></stop>
      <stop offset="1" stop-color="#54c6e5"></stop>
    </linearGradient>
  </defs>
  <g transform="translate(-575 -2812)">
    <circle cx="24" cy="24" r="24" transform="translate(575 2812)" fill="url(#a)"></circle>
    <path d="M730.07,523.93c0-3.5-2.1-4.7-6.3-5.2-3-.4-3.6-1.2-3.6-2.6s1-2.3,3-2.3c1.8,0,2.8.6,3.3,2.1a.752.752,0,0,0,.7.5h1.6a.684.684,0,0,0,.7-.7v-.1a5,5,0,0,0-4.5-4.1v-2.4c0-.4-.3-.7-.8-.8h-1.5c-.4,0-.7.3-.8.8v2.3c-3,.4-4.9,2.4-4.9,4.9,0,3.3,2,4.6,6.2,5.1,2.8.5,3.7,1.1,3.7,2.7s-1.4,2.7-3.3,2.7c-2.6,0-3.5-1.1-3.8-2.6a.73.73,0,0,0-.7-.6h-1.7a.684.684,0,0,0-.7.7v.1c.4,2.5,2,4.3,5.3,4.8v2.4c0,.4.3.7.8.8h1.5c.4,0,.7-.3.8-.8v-2.4C728.07,528.73,730.07,526.63,730.07,523.93Z" transform="translate(-124.47 2315.87)" fill="#fff"></path>
    <path d="M260.914,322.97a14.964,14.964,0,0,1,0-28.1,1,1,0,0,0,.6-1v-1.4a.76.76,0,0,0-.6-.8.6.6,0,0,0-.4.1,18,18,0,0,0,0,34.3.608.608,0,0,0,.9-.4c.1-.1.1-.2.1-.4v-1.4A1.332,1.332,0,0,0,260.914,322.97Zm10.6-31.2a.608.608,0,0,0-.9.4c-.1.1-.1.2-.1.4v1.4a1.326,1.326,0,0,0,.6,1,14.964,14.964,0,0,1,0,28.1,1,1,0,0,0-.6,1v1.4a.76.76,0,0,0,.6.8.6.6,0,0,0,.4-.1,18.072,18.072,0,0,0,0-34.4Z" transform="translate(332.986 2527.33)" fill="#fff"></path>
  </g>
</svg>
