<?xml version="1.0" encoding="UTF-8"?>
<svg xmlns="http://www.w3.org/2000/svg" width="104.45" height="20.746" viewBox="0 0 104.45 20.746">
  <g transform="translate(-0.55 -0.535)">
    <path d="M16.625,20.255c-.62-.661-1.212-1.287-1.789-1.928-.205-.228-.347-.311-.661-.125a7.34,7.34,0,0,1-7.932,0c-.305-.178-.452-.1-.668.124-.919.971-1.856,1.923-2.747,2.841L.6,18.78l3.012-3.169a9.171,9.171,0,0,1-.058-9.336l-3-3.263L2.836.539,5.874,3.781a8.263,8.263,0,0,1,3.5-1.289,7.233,7.233,0,0,1,4.671,1.03.562.562,0,0,0,.868-.136C15.792,2.4,16.7,1.45,17.557.535L19.959,3l-3.1,3.265a9.169,9.169,0,0,1,.022,9.217l3.039,3.186-2.405,2.612C17.262,20.984,16.96,20.634,16.625,20.255ZM13.586,7.517a4.46,4.46,0,0,0-7.316.8,5.258,5.258,0,0,0,.538,5.917,4.388,4.388,0,0,0,5.24,1.13L9.1,12.244l2.381-2.626,2.913,3.188A5.077,5.077,0,0,0,13.586,7.517Z" fill="#3566fd"></path>
    <path d="M33.952,14.164c-.569.574-1.108,1.114-1.668,1.676l.8,1.151-1.852,1.027c-.334-.473-.635-.958-1-1.386a1.146,1.146,0,0,0-.676-.4A4.588,4.588,0,0,1,25.4,13.162a5.518,5.518,0,0,1,.628-5.471,4.668,4.668,0,0,1,5.254-1.744,4.772,4.772,0,0,1,3.519,4.09A5.979,5.979,0,0,1,33.952,14.164Zm-5.9-5.587a8.8,8.8,0,0,0-.789,1.851c-.428,2.361,1.338,4.225,3.376,3.642a2.772,2.772,0,0,0,1.96-2.529,3.263,3.263,0,0,0-1.316-3.386A2.592,2.592,0,0,0,28.056,8.576Z" fill="#fff"></path>
    <path d="M93.6,14.784c0-.977.005-1.89,0-2.8-.006-.813-.289-1.2-.88-1.23s-1.042.385-1.072,1.146c-.046,1.172-.025,2.346-.035,3.519,0,.148-.015.3-.026.488H89.575c0-1.026,0-2.04,0-3.054,0-.369,0-.739-.024-1.107-.036-.559-.269-.954-.842-.989a.935.935,0,0,0-1.067.836,8.716,8.716,0,0,0-.091,1.425c-.013.953,0,1.906,0,2.9H85.562V9.159H87.5l.086.723a2.286,2.286,0,0,1,1.981-.949,2.088,2.088,0,0,1,1.792,1.179A2.4,2.4,0,0,1,93.689,8.94a1.909,1.909,0,0,1,1.865,1.791,16.738,16.738,0,0,1,.1,2.206c.015.976,0,1.952,0,2.97H93.6Z" fill="#fff"></path>
    <path d="M99.114,9.119a4.247,4.247,0,0,1,.25.741c1.43-1.3,3.2-1.212,4.24.232a4.609,4.609,0,0,1,.039,4.771,2.693,2.693,0,0,1-4.314.269v3.56H97.293V9.115C97.864,9.115,98.463,9.115,99.114,9.119Zm.248,2.571a5.538,5.538,0,0,0-.133,1.136,1.545,1.545,0,0,0,1.464,1.513,1.572,1.572,0,0,0,1.522-1.394,1.852,1.852,0,0,0-.9-2.06A1.453,1.453,0,0,0,99.361,11.69Z" fill="#fff"></path>
    <path d="M48.743,9.168c.641-.008,1.227-.008,1.846-.008v6.732H48.613l-.061-.718c-1.353,1.159-2.842,1.229-3.94.214a4.317,4.317,0,0,1,.018-5.683,2.584,2.584,0,0,1,3.885.231A4.133,4.133,0,0,1,48.743,9.168Zm-.449,4.6a3.964,3.964,0,0,0,.229-.456,1.926,1.926,0,0,0-.791-2.438,1.455,1.455,0,0,0-1.893.667,2.193,2.193,0,0,0,.3,2.4A1.539,1.539,0,0,0,48.294,13.77Z" fill="#fff"></path>
    <path d="M81.707,15.226a2.5,2.5,0,0,1-2.945.706,2.91,2.91,0,0,1-1.861-2.45,4.553,4.553,0,0,1,.474-3.136,2.71,2.71,0,0,1,4.441-.4l.067-.749h1.936v6.7H81.912A3.588,3.588,0,0,0,81.707,15.226Zm.231-2.712a1.665,1.665,0,0,0-.957-1.649,1.437,1.437,0,0,0-1.749.5,2.238,2.238,0,0,0,0,2.376,1.5,1.5,0,0,0,1.758.487A1.766,1.766,0,0,0,81.938,12.514Z" fill="#fff"></path>
    <path d="M57.7,9.307a2.436,2.436,0,0,1,.942,2.056c.025,1.5.007,2.992.007,4.539H56.636c0-.461,0-.929,0-1.4,0-.825,0-1.651-.024-2.476s-.386-1.242-1.026-1.273a1.155,1.155,0,0,0-1.256,1.128,8.451,8.451,0,0,0-.043,1.17c-.005.932,0,1.864,0,2.849H52.291V9.147h1.962l.055.761A2.579,2.579,0,0,1,57.7,9.307Z" fill="#fff"></path>
    <path d="M42.327,12.184v3.709H40.319l-.062-.748a2.307,2.307,0,0,1-1.984.962,2.16,2.16,0,0,1-2.25-2.22c-.065-1.56-.015-3.126-.015-4.731h2.049c0,1.241,0,2.473,0,3.705,0,.985.321,1.425,1.031,1.427.775,0,1.188-.486,1.2-1.451.01-1.216,0-2.432,0-3.686h2.04Z" fill="#fff"></path>
    <path d="M65.395,10.246c.627-1.288,2.305-1.575,3.842-1.159a1.908,1.908,0,0,1,1.5,1.942c-.565,0-1.128.016-1.689-.013-.118-.006-.223-.184-.346-.261-.262-.162-.529-.421-.8-.429-.232-.006-.472.281-.709.438.175.225.31.557.533.653.541.234,1.128.343,1.689.53a1.82,1.82,0,0,1,1.4,1.611A2.166,2.166,0,0,1,69.8,15.69a3.667,3.667,0,0,1-4.116-.354,7.371,7.371,0,0,1-.866-1.456c.8,0,1.361-.014,1.924.012a.5.5,0,0,1,.343.247.975.975,0,0,0,1.209.5.789.789,0,0,0,.491-.533.778.778,0,0,0-.405-.594c-.564-.227-1.164-.349-1.745-.532A1.939,1.939,0,0,1,65.395,10.246Z" fill="#fff"></path>
    <path d="M74.535,11.541c0,.542,0,1.02,0,1.5.011,1,.228,1.225,1.144,1.214.121,0,.242.011.4.019v1.782a16.585,16.585,0,0,1-2.3-.137c-.8-.154-1.259-1.029-1.282-2.2-.018-.929,0-1.859,0-2.844h-.958v-1.7h.945V7.156h2.034V9.146h1.408v1.711H74.535Z" fill="#fff"></path>
    <path d="M61.695,15.787a2.255,2.255,0,0,1-.987-2.139c-.021-.906,0-1.813,0-2.755l-.976-.06V9.19l.957-.055V7.156H62.7v2h1.437V10.84H62.724c0,.874-.028,1.674.009,2.47.033.7.318.949.979.957.179,0,.357,0,.564,0v1.67A4.077,4.077,0,0,1,61.695,15.787Z" fill="#fff"></path>
    <path d="M104.516,10.4a.116.116,0,0,1-.03-.084A.126.126,0,0,1,104.516,10.4Z" fill="#f0f2f4"></path>
    <path d="M105,10.563c-.009.006-.012-.019-.012-.019S105.006,10.556,105,10.563Z" fill="#f0f2f4"></path>
    <path d="M13.614,7.553a5.059,5.059,0,0,1,.774,5.254L11.475,9.618,9.094,12.244l2.954,3.117a4.388,4.388,0,0,1-5.241-1.13,5.258,5.258,0,0,1-.538-5.917A4.466,4.466,0,0,1,13.614,7.553Z" fill="#2c4548"></path>
    <path d="M28.081,8.538a2.6,2.6,0,0,1,3.206-.382A3.263,3.263,0,0,1,32.6,11.542a2.772,2.772,0,0,1-1.96,2.529c-2.038.582-3.8-1.282-3.376-3.642A8.793,8.793,0,0,1,28.081,8.538Z" fill="#2c4548"></path>
    <path d="M48.264,13.809a1.531,1.531,0,0,1-2.127.139,2.193,2.193,0,0,1-.3-2.4,1.455,1.455,0,0,1,1.893-.667,1.926,1.926,0,0,1,.791,2.438A3.3,3.3,0,0,1,48.264,13.809Z" fill="#2c4548"></path>
    <path d="M81.935,12.566a1.734,1.734,0,0,1-.948,1.659,1.5,1.5,0,0,1-1.758-.487,2.237,2.237,0,0,1,0-2.376,1.437,1.437,0,0,1,1.749-.5A1.689,1.689,0,0,1,81.935,12.566Z" fill="#2c4548"></path>
  </g>
</svg>
