<?xml version="1.0" encoding="UTF-8"?>
<svg xmlns="http://www.w3.org/2000/svg" width="31.419" height="34.913" viewBox="0 0 31.419 34.913">
  <path d="M14.748,23.111a1.738,1.738,0,0,0,2.461,0l11.1-11.1a1.738,1.738,0,0,0,0-2.461L19.67.907A1.7,1.7,0,0,0,17.226.89L6.107,12.009a1.738,1.738,0,0,0,0,2.461Zm3.7-18.52,6.179,6.179-8.64,8.64L9.808,13.231l8.64-8.64Zm12.131,19.2-3.7-3.7a1.761,1.761,0,0,0-1.222-.506h-.471l-3.491,3.491h3.334l3.09,3.491H3.681l3.107-3.491h3.578L6.875,19.585H6.142a1.8,1.8,0,0,0-1.239.506l-3.7,3.7A3.56,3.56,0,0,0,.19,26.27V31.8a3.5,3.5,0,0,0,3.491,3.491H28.118A3.49,3.49,0,0,0,31.609,31.8V26.27a3.5,3.5,0,0,0-1.03-2.479Z" transform="translate(-0.19 -0.382)" fill="#259da8"></path>
</svg>
