<?xml version="1.0" encoding="UTF-8"?>
<svg xmlns="http://www.w3.org/2000/svg" width="48.001" height="47.999" viewBox="0 0 48.001 47.999">
  <g transform="translate(-871 -2296.001)">
    <g transform="translate(871 2296.001)">
      <circle cx="24" cy="24" r="24" fill="#fff"></circle>
      <path d="M91.862,220.875a22.5,22.5,0,1,1-22.5,22.5,22.5,22.5,0,0,1,22.5-22.5m0-1.5a24,24,0,1,0,24,24,24,24,0,0,0-24-24Z" transform="translate(-67.862 -219.375)"></path>
      <g transform="translate(3.36 3.361)" opacity="0.65">
        <g transform="translate(7.124)">
          <path d="M102.094,226.873a20.641,20.641,0,0,0-27.3-.235l1.09,1.09a19.131,19.131,0,0,1,25.123.235Z" transform="translate(-74.791 -221.596)"></path>
          <path d="M94.241,226.123l-1.09,1.09a19.129,19.129,0,0,1,.236,25.123l1.09,1.09A20.64,20.64,0,0,0,94.241,226.123Z" transform="translate(-65.365 -219.272)"></path>
        </g>
        <g transform="translate(0 6.588)">
          <path d="M76.451,252.7a19.129,19.129,0,0,1,.242-25.663l-1.087-1.087a20.641,20.641,0,0,0-.245,27.839Z" transform="translate(-70.083 -225.949)"></path>
          <path d="M101.362,244.5a19.126,19.126,0,0,1-25.661.244l-1.09,1.088a20.638,20.638,0,0,0,27.839-.245Z" transform="translate(-67.759 -216.425)"></path>
        </g>
      </g>
    </g>
    <path d="M96.055,243.228c.115-2.561-.9-4.225-3.027-4.692-.118-.026-.238-.045-.36-.062a3.585,3.585,0,0,0,1.936-3.92h0c-.3-2.744-2.68-3.632-5.674-3.846l-.05-3.8-2.317.029.05,3.708c-.605.011-1.227.027-1.848.05l-.047-3.729-2.308.03.027,3.8c-.5.017-.994.032-1.477.035v-.011l-3.195.042.033,2.471s1.712-.053,1.681-.023a1.2,1.2,0,0,1,1.347,1l.053,4.348.08,6.07a.819.819,0,0,1-.855.778c.03.026-1.681.021-1.681.021l-.407,2.776,3.018-.039c.561,0,1.112,0,1.654-.009l.05,3.852,2.308-.032-.058-3.808h1.851l.048,3.784,2.322-.032-.041-3.838C93.053,247.9,95.765,246.886,96.055,243.228Zm-11.14-5.194-.061-4.625c1.308-.014,5.409-.484,5.448,2.246h0C90.332,238.268,86.22,238.018,84.914,238.034Zm.092,7.431-.067-5.1c1.571-.017,6.486-.54,6.526,2.465.039,2.874-4.888,2.612-6.459,2.635Z" transform="translate(808.221 2080.491)" fill="#ffa541"></path>
  </g>
</svg>
